<svg width="56" height="57" viewBox="0 0 56 57" fill="none" xmlns="http://www.w3.org/2000/svg">
<path d="M48.123 23.0904V26.1969V31.4366L55.2641 27.2638L49.4997 23.9249V23.0081L50.521 22.4816L55.745 25.4635C55.4324 23.0864 54.8265 20.804 53.9638 18.6527L48.123 22.1736V23.0904Z" fill="#6951FF"/>
<path d="M48.123 34.3109V37.4168V42.6564L54.2382 39.0826C54.3599 38.7544 54.4719 38.4223 54.5812 38.0882L49.4997 35.1448V34.228L50.521 33.7014L55.1055 36.3186C55.6887 34.0499 56 31.6715 56 29.2194C56 29.1136 55.9929 29.0092 55.9916 28.9035L48.123 33.3934V34.3109Z" fill="#6951FF"/>
<path d="M38.488 55.0762V55.3907C39.8434 54.8387 41.1469 54.1855 42.3871 53.4358L42.0524 53.2283L38.4874 51.1416L38.488 55.0762Z" fill="#6951FF"/>
<path d="M42.9961 47.618L39.246 49.7041L42.8071 51.7908L43.8984 52.4505C44.8958 51.7556 45.8485 50.9993 46.7463 50.1824V45.5313L42.9961 47.618Z" fill="#6951FF"/>
<path d="M44.0932 32.0545L42.0531 30.7873L38.488 28.7012V32.6352V37.0461L46.7463 32.3396V31.4365V28.7012V23.0903L39.3994 27.2631L42.8071 29.3505L44.9113 30.6216V31.5051L44.0932 32.0545Z" fill="#6951FF"/>
<path d="M44.0932 43.2743L42.0531 42.0078L38.488 39.9211V43.8551V48.2673L46.7463 43.5595V42.6564V39.9211V34.3102L42.9961 36.3969L39.246 38.4836L42.8071 40.5703L44.9113 41.8414V42.7256L44.0932 43.2743Z" fill="#6951FF"/>
<path d="M48.123 45.5307V48.6366V48.8356C50.121 46.7528 51.8045 44.3634 53.0945 41.7396L48.123 44.6133V45.5307Z" fill="#6951FF"/>
<path d="M6.16896 26.4508L15.8978 32.061C16.1521 32.2091 16.466 32.4838 16.466 32.7794V43.9999V54.9378C17.6486 55.4781 18.8732 55.9368 20.1366 56.3094V52.1764C21.0537 51.1677 21.9981 49.8307 24.8169 48.7527C22.7735 48.8989 21.5126 49.5214 20.1366 50.1856V38.8875C21.0537 37.8787 22.1114 36.5404 24.9308 35.4638C22.8906 35.6093 21.4648 36.2299 20.369 36.8928C20.3819 36.6037 20.4162 36.3147 20.5237 36.0374L24.4343 25.9013C24.8363 25.5301 25.7159 25.0446 26.3508 24.8019C25.8919 24.7973 25.2712 24.8782 24.756 25.0381L25.2033 23.842C25.2939 23.6071 25.4039 23.4094 25.5301 23.2476C25.7004 23.0284 26.101 22.7869 26.101 22.7869V12.7618C26.101 12.6848 26.1696 12.7494 26.2473 12.7494H26.8194C26.8965 12.7494 27.0194 12.6842 27.0194 12.7618V22.7908C27.0194 22.7908 27.2389 22.9011 27.3431 22.9879C27.5716 23.1778 27.769 23.461 27.9152 23.8388L32.6958 36.04C32.8887 36.5385 32.9838 37.0781 32.9838 37.5792V56.9913C34.2382 56.7642 35.4635 56.4556 36.6544 56.0654V49.7034V38.4836V27.2638C36.6544 26.9675 36.8874 26.6928 37.1418 26.5447L46.8563 20.9351L53.3249 17.1715C48.8395 7.60965 39.1877 0.99128 28 0.99128C14.5709 0.99128 3.35537 10.5237 0.634979 23.2411L6.16896 26.4508ZM35.2991 13.7804L36.4389 8.83766L37.5787 13.7804L42.4809 14.9295L37.5787 16.0785L36.4389 21.0212L35.2991 16.0785L30.3961 14.9295L35.2991 13.7804Z" fill="#6951FF"/>
<path d="M0 29.2187C0 29.28 0.00453074 29.34 0.00453074 29.4014L2.36828 27.9972L3.16052 28.5244V29.4412L0.0834951 31.2969C0.159871 32.3468 0.291262 33.3804 0.478317 34.3957L4.99612 36.9535V31.7139V28.6073V27.6905L0.319094 24.9487C0.109385 26.3405 0 27.7675 0 29.2187Z" fill="#6951FF"/>
<path d="M4.99611 39.8265V38.9097L0.99028 36.6586C1.25047 37.6223 1.5618 38.5658 1.91908 39.4852L2.36892 39.2177L3.16115 39.7443V40.661L2.56633 41.0199C3.25371 42.5239 4.06795 43.9568 4.99675 45.3049V42.9331L4.99611 39.8265Z" fill="#6951FF"/>
<path d="M14.6304 45.4367L10.9845 47.5228L8.15468 49.1286C10.0595 51.0587 12.2401 52.7122 14.6304 54.0244V49.37V45.4367Z" fill="#6951FF"/>
<path d="M6.37219 45.4367V47.145C6.56443 47.3812 6.76572 47.6089 6.96507 47.838L10.0188 46.0853L13.6492 43.9993L10.0071 41.9126L6.37219 39.8265V45.4367Z" fill="#6951FF"/>
<path d="M10.0071 34.8655L13.5703 32.78L6.37219 28.606V34.2162V36.9528V37.8559L14.6304 42.5624V38.1515V34.2162L10.9767 36.3029L8.70553 37.5694L7.74824 37.022V36.1378L10.0071 34.8655Z" fill="#6951FF"/>
</svg>
